<svg xlink="http://www.w3.org/1999/xlink" viewBox="0 0 5000 5000" xmlns="http://www.w3.org/2000/svg" style="transform: scale(1);"><defs><filter id="goo"><feGaussianBlur in="SourceGraphic" stdDeviation="0" result="blur"></feGaussianBlur><feColorMatrix in="blur" type="matrix" values="1 0 0 0 0 0 1 0 0 0 0 0 1 0 0 0 0 0 19 -9" result="good"></feColorMatrix><feComposite in="SourceGraphic" in2="goo" operator="atop"></feComposite></filter><path d="M225,236C242,218 268,222 279,246C280,256 277,265 268,272L233,273C222,263 219,248 225,236z" id="P0"></path><path d="M242,259L238,249L256,239L258,259L242,259z" id="P1"></path><path d="M214,267C229,250 231,241 226,218L289,240Q301,282 253,290L214,267z" id="P2"></path><path d="M249,265L240,238L244,236L264,244L249,265z" id="P3"></path><path d="M225,281Q190,246 229,216C254,228 268,237 290,255C288,268 281,279 267,286C253,292 237,290 225,281z" id="P4"></path><path d="M246,238L262,256L239,256L237,252L246,238z" id="P5"></path><path d="M262,288C245,292 227,286 215,269C229,243 240,230 265,213L290,245Q303,279 262,288z" id="P6"></path><path d="M256,237L258,262L245,263L247,236L256,237z" id="P7"></path></defs><rect id="RECT" width="5000" height="5000" fill="#27135C"></rect><g id="group" fill="#EBDC37" filter="" opacity="0.37"><use x="206" y="59" href="#P1"></use><use x="-246" y="498" href="#P5"></use><use x="214" y="1028" href="#P6"></use><use x="267" y="1288" href="#P3"></use><use x="127" y="2022" href="#P4"></use><use x="-20" y="2224" href="#P0"></use><use x="-17" y="2964" href="#P6"></use><use x="1" y="3256" href="#P6"></use><use x="270" y="3728" href="#P2"></use><use x="-241" y="4471" href="#P6"></use><use x="42" y="4764" href="#P0"></use><use x="-25" y="5117" href="#P1"></use><use x="421" y="-259" href="#P1"></use><use x="474" y="446" href="#P3"></use><use x="584" y="847" href="#P3"></use><use x="349" y="1312" href="#P4"></use><use x="209" y="1689" href="#P2"></use><use x="784" y="2519" href="#P1"></use><use x="836" y="2618" href="#P4"></use><use x="591" y="3598" href="#P3"></use><use x="421" y="3819" href="#P4"></use><use x="613" y="4237" href="#P3"></use><use x="182" y="4746" href="#P0"></use><use x="693" y="5405" href="#P3"></use><use x="1084" y="262" href="#P5"></use><use x="1114" y="602" href="#P0"></use><use x="844" y="943" href="#P2"></use><use x="842" y="1617" href="#P1"></use><use x="857" y="2092" href="#P4"></use><use x="1062" y="2548" href="#P6"></use><use x="1028" y="2697" href="#P7"></use><use x="1108" y="3354" href="#P2"></use><use x="1301" y="3695" href="#P7"></use><use x="993" y="4465" href="#P5"></use><use x="1064" y="4492" href="#P5"></use><use x="1002" y="5070" href="#P7"></use><use x="1445" y="161" href="#P5"></use><use x="1357" y="447" href="#P1"></use><use x="1789" y="1215" href="#P4"></use><use x="1721" y="1329" href="#P1"></use><use x="1275" y="1978" href="#P5"></use><use x="1600" y="2269" href="#P5"></use><use x="1376" y="3086" href="#P5"></use><use x="1400" y="3258" href="#P7"></use><use x="1638" y="3826" href="#P3"></use><use x="1530" y="4085" href="#P3"></use><use x="1727" y="4817" href="#P5"></use><use x="1306" y="5582" href="#P3"></use><use x="2142" y="163" href="#P1"></use><use x="2019" y="636" href="#P0"></use><use x="2218" y="1132" href="#P4"></use><use x="2208" y="1150" href="#P4"></use><use x="1934" y="1957" href="#P1"></use><use x="2025" y="2455" href="#P2"></use><use x="2072" y="2739" href="#P2"></use><use x="2160" y="3395" href="#P2"></use><use x="2257" y="3823" href="#P3"></use><use x="2045" y="4378" href="#P0"></use><use x="2231" y="4780" href="#P0"></use><use x="1893" y="5637" href="#P4"></use><use x="2513" y="47" href="#P5"></use><use x="2409" y="242" href="#P1"></use><use x="2545" y="1143" href="#P5"></use><use x="2346" y="1553" href="#P1"></use><use x="2690" y="1988" href="#P0"></use><use x="2282" y="2389" href="#P7"></use><use x="2310" y="2836" href="#P0"></use><use x="2494" y="3082" href="#P2"></use><use x="2503" y="3852" href="#P2"></use><use x="2387" y="4258" href="#P2"></use><use x="2347" y="4924" href="#P1"></use><use x="2277" y="5210" href="#P1"></use><use x="3031" y="37" href="#P4"></use><use x="3066" y="270" href="#P3"></use><use x="3089" y="1222" href="#P7"></use><use x="3019" y="1156" href="#P2"></use><use x="2735" y="1816" href="#P7"></use><use x="2886" y="2320" href="#P2"></use><use x="2983" y="2755" href="#P1"></use><use x="3262" y="3613" href="#P6"></use><use x="3155" y="3841" href="#P5"></use><use x="3164" y="4584" href="#P0"></use><use x="2816" y="4817" href="#P6"></use><use x="3173" y="5407" href="#P5"></use><use x="3234" y="-133" href="#P5"></use><use x="3444" y="309" href="#P0"></use><use x="3228" y="857" href="#P2"></use><use x="3493" y="1429" href="#P7"></use><use x="3707" y="1677" href="#P5"></use><use x="3671" y="2310" href="#P6"></use><use x="3762" y="2651" href="#P6"></use><use x="3651" y="3361" href="#P5"></use><use x="3263" y="3621" href="#P6"></use><use x="3768" y="4396" href="#P3"></use><use x="3528" y="4778" href="#P2"></use><use x="3373" y="5192" href="#P5"></use><use x="3926" y="187" href="#P5"></use><use x="4101" y="314" href="#P7"></use><use x="4060" y="667" href="#P4"></use><use x="4067" y="1443" href="#P3"></use><use x="3943" y="2011" href="#P7"></use><use x="3918" y="2579" href="#P2"></use><use x="3870" y="2873" href="#P6"></use><use x="3755" y="3458" href="#P4"></use><use x="4236" y="3851" href="#P6"></use><use x="4103" y="4200" href="#P2"></use><use x="4088" y="4804" href="#P0"></use><use x="3923" y="5549" href="#P1"></use><use x="4226" y="270" href="#P4"></use><use x="4712" y="138" href="#P5"></use><use x="4293" y="983" href="#P7"></use><use x="4712" y="1440" href="#P0"></use><use x="4381" y="2060" href="#P6"></use><use x="4843" y="2352" href="#P6"></use><use x="4258" y="2974" href="#P7"></use><use x="4684" y="3360" href="#P3"></use><use x="4432" y="3834" href="#P5"></use><use x="4398" y="4225" href="#P5"></use><use x="4180" y="4534" href="#P4"></use><use x="4706" y="5094" href="#P7"></use><use x="4792" y="-85" href="#P3"></use><use x="5105" y="272" href="#P7"></use><use x="4847" y="774" href="#P1"></use><use x="5119" y="1666" href="#P7"></use><use x="5020" y="2018" href="#P5"></use><use x="4933" y="2373" href="#P3"></use><use x="4823" y="3033" href="#P1"></use><use x="4717" y="3299" href="#P7"></use><use x="4872" y="3835" href="#P3"></use><use x="5150" y="4454" href="#P6"></use><use x="4944" y="4804" href="#P3"></use><use x="5019" y="5391" href="#P7"></use></g></svg>